<svg width="12" height="12" viewBox="0 0 12 12" fill="#FF0000" xmlns="http://www.w3.org/2000/svg">
<path d="M6 0.625C8.96853 0.625 11.375 3.03147 11.375 6C11.375 8.96853 8.96853 11.375 6 11.375C3.03147 11.375 0.625 8.96853 0.625 6C0.625 3.03147 3.03147 0.625 6 0.625ZM8.03027 3.96973C7.73738 3.67683 7.26262 3.67683 6.96973 3.96973L6 4.93945L5.03027 3.96973L4.97363 3.91797C4.67905 3.67766 4.24433 3.69512 3.96973 3.96973C3.69512 4.24433 3.67766 4.67905 3.91797 4.97363L3.96973 5.03027L4.93945 6L3.96973 6.96973C3.67683 7.26262 3.67683 7.73738 3.96973 8.03027C4.26262 8.32317 4.73738 8.32317 5.03027 8.03027L6 7.06055L6.96973 8.03027L7.02637 8.08203C7.32095 8.32234 7.75567 8.30488 8.03027 8.03027C8.30488 7.75567 8.32234 7.32095 8.08203 7.02637L8.03027 6.96973L7.06055 6L8.03027 5.03027C8.32317 4.73738 8.32317 4.26262 8.03027 3.96973Z" fill="currentColor"/>
</svg>
