<svg width="12" height="12" viewBox="0 0 12 12" fill="#00FF40" xmlns="http://www.w3.org/2000/svg">
<path d="M6 0.625C8.96853 0.625 11.375 3.03147 11.375 6C11.375 8.96853 8.96853 11.375 6 11.375C3.03147 11.375 0.625 8.96853 0.625 6C0.625 3.03147 3.03147 0.625 6 0.625ZM6 3.5C5.72386 3.5 5.5 3.72386 5.5 4V5.5H4C3.72386 5.5 3.5 5.72386 3.5 6C3.5 6.27614 3.72386 6.5 4 6.5H5.5V8C5.5 8.27614 5.72386 8.5 6 8.5C6.27614 8.5 6.5 8.27614 6.5 8V6.5H8C8.27614 6.5 8.5 6.27614 8.5 6C8.5 5.72386 8.27614 5.5 8 5.5H6.5V4C6.5 3.72386 6.27614 3.5 6 3.5Z" fill="currentColor"/>
</svg>
