<svg width="24" height="24" viewBox="0 0 24 24" fill="currentColor" xmlns="http://www.w3.org/2000/svg">
<path d="M19 1.25C21.071 1.25 22.7499 2.92904 22.75 5C22.75 7.07107 21.0711 8.75 19 8.75C17.1857 8.74999 15.6726 7.46177 15.3252 5.75L11 5.75C9.00093 5.75001 7.2627 6.86751 6.37598 8.51172C7.76605 9.06044 8.7499 10.4149 8.75 12C8.75 13.585 7.76586 14.9384 6.37597 15.4873C7.26251 17.1321 9.00047 18.25 11 18.25L15.3252 18.25C15.6727 16.5385 17.1859 15.25 19 15.25C21.071 15.25 22.7499 16.929 22.75 19C22.75 21.0711 21.0711 22.75 19 22.75C17.1857 22.75 15.6726 21.4618 15.3252 19.75L11 19.75C8.2497 19.75 5.88485 18.1048 4.83301 15.7451C2.83947 15.6577 1.25 14.0151 1.25 12C1.25012 9.98468 2.84004 8.34079 4.83398 8.25391C5.88618 5.89509 8.25031 4.25001 11 4.25L15.3252 4.25C15.6727 2.53846 17.1859 1.25002 19 1.25Z" fill="currentColor"/>
</svg>
